<svg xmlns="http://www.w3.org/2000/svg" viewBox="0 0 1400 1000"><rect width="1400" height="1000" fill="#172124"/><path d="M0 850h1400v150H0z" fill="#e9e1d5"/><rect x="380" y="120" width="640" height="730" rx="20" fill="#cbd0cf"/><rect x="435" y="180" width="530" height="610" fill="#202b2e"/><g fill="#d7c09a"><rect x="490" y="235" width="170" height="55"/><rect x="740" y="235" width="170" height="55"/><rect x="490" y="330" width="170" height="55"/><rect x="740" y="330" width="170" height="55"/><rect x="490" y="425" width="170" height="55"/><rect x="740" y="425" width="170" height="55"/><rect x="490" y="520" width="170" height="55"/><rect x="740" y="520" width="170" height="55"/></g><path d="M700 120V35M560 120V55M840 120V55" stroke="#af8954" stroke-width="22"/><path d="M700 790v160M600 790v130M800 790v130" stroke="#6f8387" stroke-width="22"/></svg>
