<svg xmlns="http://www.w3.org/2000/svg" viewBox="0 0 1600 1100" role="img" aria-labelledby="t d"><title id="t">Refined residential plumbing</title><desc id="d">A warm modern bathroom with brass fixtures and architectural stone.</desc><defs><linearGradient id="g" x1="0" y1="0" x2="1" y2="1"><stop stop-color="#101718"/><stop offset=".55" stop-color="#314044"/><stop offset="1" stop-color="#94754f"/></linearGradient><filter id="n"><feTurbulence baseFrequency=".7" numOctaves="3" stitchTiles="stitch"/><feColorMatrix values="1 0 0 0 0 0 1 0 0 0 0 0 1 0 0 0 0 0 .08 0"/></filter></defs><rect width="1600" height="1100" fill="url(#g)"/><rect x="0" y="0" width="1600" height="1100" filter="url(#n)" opacity=".24"/><path d="M210 790h1180v310H210z" fill="#e9e1d4" opacity=".82"/><path d="M970 220h390v570H970z" fill="#f3eee7" opacity=".91"/><path d="M1015 270h300v460h-300z" fill="#b4c0bf" opacity=".36"/><path d="M180 245h540v545H180z" fill="#1a2324" opacity=".76"/><path d="M240 300h420v365H240z" fill="#d9d0c2" opacity=".17"/><path d="M305 650h350v72H305z" fill="#d7cab8"/><path d="M410 520h135v135H410z" fill="#eae3d8"/><path d="M475 468v95" stroke="#aa8657" stroke-width="16" stroke-linecap="round"/><path d="M475 470c55-5 86 24 88 66" fill="none" stroke="#aa8657" stroke-width="16" stroke-linecap="round"/><circle cx="475" cy="475" r="18" fill="#c4a16d"/><path d="M1040 815h250v285h-250z" fill="#272f30"/><path d="M1095 860h140" stroke="#c6a06d" stroke-width="9"/><path d="M1095 925h140" stroke="#c6a06d" stroke-width="9"/><path d="M1095 990h140" stroke="#c6a06d" stroke-width="9"/></svg>
